# xmcd
# 
# Track frame offsets:
#     150
#     13050
#     25812
#     36880
#     48260
#     59325
#     71477
#     84950
#     97672
#     109837
#     122435
#     133745
# 
# Disc length: 1939
# 
# Revision: 2
# Processed by: cddbd v1.5.2PL0 Copyright (c) Steve Scherf et al.
# Submitted via: BonkEnc v1.0.8
# 
DISCID=9107910c
DTITLE=Hank Snow - Hank Snow, The Best of
DYEAR=0
DGENRE=
TTITLE0=I'm Movin' On
TTITLE1=The Rhumba Boogie
TTITLE2=Let Me Go, Lover!
TTITLE3=With This Ring I Thee Wed
TTITLE4=Music Makin' Mama From Memphis
TTITLE5=Miller's Cave
TTITLE6=I Don't Hurt Anymore
TTITLE7=The Golden Rocket
TTITLE8=Bluebird Island
TTITLE9=I've Been Everywhere
TTITLE10=A Fool Such as I
TTITLE11=Ninety Miles an Hour
EXTD=
EXTT0=
EXTT1=
EXTT2=
EXTT3=
EXTT4=
EXTT5=
EXTT6=
EXTT7=
EXTT8=
EXTT9=
EXTT10=
EXTT11=
PLAYORDER=
